<?xml version="1.0" encoding="utf-8"?>
<!-- Generator: Adobe Illustrator 16.0.0, SVG Export Plug-In . SVG Version: 6.00 Build 0)  -->
<!DOCTYPE svg PUBLIC "-//W3C//DTD SVG 1.1//EN" "http://www.w3.org/Graphics/SVG/1.1/DTD/svg11.dtd">
<svg version="1.1" id="Layer_1" xmlns="http://www.w3.org/2000/svg" xmlns:xlink="http://www.w3.org/1999/xlink" x="0px" y="0px"
	 width="82.758px" height="82.758px" viewBox="0 0 82.758 82.758" enable-background="new 0 0 82.758 82.758" xml:space="preserve">
<g>
	
		<path fill="none" stroke="#FFFFFF" stroke-width="2.0731" stroke-linecap="round" stroke-linejoin="round" stroke-miterlimit="10" d="
		M62.955,44.489h8.485v-8.293h-8.488c-0.533-2.186-1.439-4.438-2.622-6.375l6.002-6.002l-7.395-7.393l-6.003,6.001
		c-1.938-1.182-5.206-2.396-6.372-2.622v-8.487H36.196v8.487c-1.344,0.292-4.438,1.44-6.373,2.622l-6.004-6.001l-7.394,7.393
		l6.002,6.004c-1.182,1.935-2.314,5.093-2.625,6.373h-8.484v8.293h8.484c0.424,3.158,1.442,6.512,2.625,8.447l-6.003,6.004
		l7.396,7.393l6.001-6.006c1.938,1.186,5.37,2.08,6.375,2.629v8.484h10.366v-8.484c1.004-0.549,4.438-1.443,6.372-2.625l6.005,6.002
		l7.393-7.393l-6.002-6.004C61.512,51,62.406,49.641,62.955,44.489z"/>
	
		<circle fill="none" stroke="#FFFFFF" stroke-width="2.0731" stroke-linecap="round" stroke-linejoin="round" stroke-miterlimit="10" cx="41.379" cy="41.379" r="11.402"/>
</g>
</svg>
