<?xml version="1.0" encoding="utf-8"?>
<!-- Generator: Adobe Illustrator 16.0.0, SVG Export Plug-In . SVG Version: 6.00 Build 0)  -->
<!DOCTYPE svg PUBLIC "-//W3C//DTD SVG 1.1//EN" "http://www.w3.org/Graphics/SVG/1.1/DTD/svg11.dtd">
<svg version="1.1" id="Layer_1" xmlns="http://www.w3.org/2000/svg" xmlns:xlink="http://www.w3.org/1999/xlink" x="0px" y="0px"
	 width="512px" height="512px" viewBox="0 0 512 512" enable-background="new 0 0 512 512" xml:space="preserve">
<path fill="#4F91FF" d="M256,0C114.614,0,0,114.619,0,256c0,141.383,114.614,256,256,256c141.385,0,256-114.617,256-256
	C512,114.619,397.385,0,256,0z M256,496C123.451,496,16,388.546,16,256C16,123.455,123.451,16,256,16s240,107.455,240,240
	C496,388.546,388.549,496,256,496z"/>
<g>
	<path fill="#FFFFFF" d="M412.002,208c-4.418,0-8,3.582-8,8v168h-240c-4.418,0-8,3.582-8,8s3.582,8,8,8h248c4.418,0,8-3.582,8-8V216
		C420.002,211.582,416.42,208,412.002,208z"/>
	<path fill="#FFFFFF" d="M388.002,360V184c0-4.418-3.582-8-8-8s-8,3.582-8,8v168h-240c-4.418,0-8,3.582-8,8s3.582,8,8,8h248
		C384.42,368,388.002,364.418,388.002,360z"/>
	<path fill="#FFFFFF" d="M356.002,328V120c0-4.418-3.582-8-8-8h-248c-4.418,0-8,3.582-8,8v208c0,4.418,3.582,8,8,8h248
		C352.42,336,356.002,332.418,356.002,328z M340.002,144H172.168v-16h167.834V144z M140.168,144v-16h16v16H140.168z M124.168,128v16
		h-16.166v-16H124.168z M108.002,320V160h232v160H108.002z"/>
	<path fill="#4F91FF" d="M300.002,214.559c-4.418,0-8,3.58-8,8v37.078l-47.889-47.889c-3.123-3.124-8.188-3.125-11.312,0
		c-3.125,3.124-3.125,8.189,0,11.313l47.888,47.89h-36.631c-4.419,0-8,3.581-8,8c0,4.418,3.581,8,8,8h55.944c4.418,0,8-3.582,8-8
		v-56.393C308.002,218.139,304.42,214.559,300.002,214.559z"/>
</g>
</svg>